ffmpeg started on 2025-06-04 at 20:16:56
Report written to "D:\Convert\FFMetrics\reports\ssim_report-6.txt"
Log level: 32
Command line:
ffmpeg -hide_banner -nostdin -i "G:\\\xc0\xed\xe8\xec\xe5\\\xce\xed\xe3\xee\xe8\xed\xe3\xe8\\!_36_\xce\xf1\xe5\xed\xfc_2024\\DreamCast\\\xc3\xf0\xe8\xe1\xed\xee\xe9 \xf9\xe5\xed\xee\xea\\[DC] Kinoko Inu - 08_Telegram_HEVC.mkv" -i "G:\\\xc0\xed\xe8\xec\xe5\\\xce\xed\xe3\xee\xe8\xed\xe3\xe8\\!_36_\xce\xf1\xe5\xed\xfc_2024\\DreamCast\\\xc3\xf0\xe8\xe1\xed\xee\xe9 \xf9\xe5\xed\xee\xea\\[DC] Kinoko Inu - 08_Telegram.mp4" -lavfi "[0:v]settb=AVTB,setpts=PTS-STARTPTS,format=pix_fmts=yuv420p10,fps=24000/1001,scale=1920:1080:flags=bicubic[main];[1:v]settb=AVTB,setpts=PTS-STARTPTS,format=pix_fmts=yuv420p,fps=24000/1001,scale=1920:1080:flags=bicubic[ref];[main][ref]ssim=eof_action=endall:stats_file='D\\:/Convert/FFMetrics/logs/ssim_logfile-6.txt'" -f null -
Input #0, matroska,webm, from 'G:\Аниме\Онгоинги\!_36_Осень_2024\DreamCast\Грибной щенок\[DC] Kinoko Inu - 08_Telegram_HEVC.mkv':
  Metadata:
    COMPATIBLE_BRANDS: isomiso2avc1mp41
    MAJOR_BRAND     : isom
    MINOR_VERSION   : 512
    ENCODER         : Lavf61.7.100
  Duration: 00:23:51.64, start: -0.021000, bitrate: 680 kb/s
  Stream #0:0: Video: hevc (Main 10), yuv420p10le(tv, bt709, progressive), 1920x1080 [SAR 1:1 DAR 16:9], 23.98 fps, 23.98 tbr, 1k tbn (default)
      Metadata:
        HANDLER_NAME    : VideoHandler
        VENDOR_ID       : [0][0][0][0]
        ENCODER         : Lavc61.19.100 libx265
        BPS             : 483727
        DURATION        : 00:23:51.513708333
        NUMBER_OF_FRAMES: 34322
        NUMBER_OF_BYTES : 86557760
        _STATISTICS_WRITING_APP: mkvpropedit v66.0.0 ('Josie') 64-bit
        _STATISTICS_WRITING_DATE_UTC: 2025-05-30 10:43:40
        _STATISTICS_TAGS: BPS DURATION NUMBER_OF_FRAMES NUMBER_OF_BYTES
  Stream #0:1: Audio: aac (LC), 48000 Hz, stereo, fltp (default)
      Metadata:
        HANDLER_NAME    : SoundHandler
        VENDOR_ID       : [0][0][0][0]
        ENCODER         : Lavc61.19.100 aac
        BPS             : 192922
        DURATION        : 00:23:51.637000000
        NUMBER_OF_FRAMES: 67109
        NUMBER_OF_BYTES : 34524381
        _STATISTICS_WRITING_APP: mkvpropedit v66.0.0 ('Josie') 64-bit
        _STATISTICS_WRITING_DATE_UTC: 2025-05-30 10:43:40
        _STATISTICS_TAGS: BPS DURATION NUMBER_OF_FRAMES NUMBER_OF_BYTES
Input #1, mov,mp4,m4a,3gp,3g2,mj2, from 'G:\Аниме\Онгоинги\!_36_Осень_2024\DreamCast\Грибной щенок\[DC] Kinoko Inu - 08_Telegram.mp4':
  Metadata:
    major_brand     : isom
    minor_version   : 512
    compatible_brands: isomiso2avc1mp41
    encoder         : Lavf60.16.100
  Duration: 00:23:51.58, start: 0.000000, bitrate: 3780 kb/s
  Stream #1:0[0x1](und): Video: h264 (High) (avc1 / 0x31637661), yuv420p(tv, bt709, progressive), 1920x1080 [SAR 1:1 DAR 16:9], 3632 kb/s, 23.98 fps, 23.98 tbr, 24k tbn (default)
      Metadata:
        handler_name    : VideoHandler
        vendor_id       : [0][0][0][0]
        encoder         : Lavc60.31.102 h264_qsv
  Stream #1:1[0x2](und): Audio: aac (HE-AACv2) (mp4a / 0x6134706D), 48000 Hz, stereo, fltp, 144 kb/s (default)
      Metadata:
        handler_name    : SoundHandler
        vendor_id       : [0][0][0][0]
Stream mapping:
  Stream #0:0 (hevc) -> settb:default
  Stream #1:0 (h264) -> settb:default
  ssim:default -> Stream #0:0 (wrapped_avframe)
  Stream #0:1 -> #0:1 (aac (native) -> pcm_s16le (native))
Output #0, null, to 'pipe:':
  Metadata:
    COMPATIBLE_BRANDS: isomiso2avc1mp41
    MAJOR_BRAND     : isom
    MINOR_VERSION   : 512
    encoder         : Lavf61.7.100
  Stream #0:0: Video: wrapped_avframe, yuv420p10le(tv, bt709, progressive), 1920x1080 [SAR 1:1 DAR 16:9], q=2-31, 200 kb/s, 23.98 fps, 23.98 tbn
      Metadata:
        encoder         : Lavc61.19.100 wrapped_avframe
  Stream #0:1: Audio: pcm_s16le, 48000 Hz, stereo, s16, 1536 kb/s (default)
      Metadata:
        HANDLER_NAME    : SoundHandler
        VENDOR_ID       : [0][0][0][0]
        _STATISTICS_TAGS: BPS DURATION NUMBER_OF_FRAMES NUMBER_OF_BYTES
        BPS             : 192922
        DURATION        : 00:23:51.637000000
        NUMBER_OF_FRAMES: 67109
        NUMBER_OF_BYTES : 34524381
        _STATISTICS_WRITING_APP: mkvpropedit v66.0.0 ('Josie') 64-bit
        _STATISTICS_WRITING_DATE_UTC: 2025-05-30 10:43:40
        encoder         : Lavc61.19.100 pcm_s16le
frame=  175 fps=0.0 q=-0.0 size=N/A time=00:00:07.29 bitrate=N/A speed=14.2x    frame=  422 fps=413 q=-0.0 size=N/A time=00:00:17.60 bitrate=N/A speed=17.2x    frame=  679 fps=439 q=-0.0 size=N/A time=00:00:28.31 bitrate=N/A speed=18.3x    frame=  958 fps=462 q=-0.0 size=N/A time=00:00:39.95 bitrate=N/A speed=19.3x    frame= 1239 fps=478 q=-0.0 size=N/A time=00:00:51.67 bitrate=N/A speed=19.9x    frame= 1521 fps=489 q=-0.0 size=N/A time=00:01:03.43 bitrate=N/A speed=20.4x    frame= 1779 fps=492 q=-0.0 size=N/A time=00:01:14.19 bitrate=N/A speed=20.5x    frame= 2044 fps=494 q=-0.0 size=N/A time=00:01:25.25 bitrate=N/A speed=20.6x    frame= 2314 fps=497 q=-0.0 size=N/A time=00:01:36.51 bitrate=N/A speed=20.7x    frame= 2579 fps=500 q=-0.0 size=N/A time=00:01:47.56 bitrate=N/A speed=20.8x    frame= 2862 fps=504 q=-0.0 size=N/A time=00:01:59.36 bitrate=N/A speed=  21x    frame= 3142 fps=507 q=-0.0 size=N/A time=00:02:11.04 bitrate=N/A speed=21.1x    frame= 3411 fps=509 q=-0.0 size=N/A time=00:02:22.26 bitrate=N/A speed=21.2x    frame= 3673 fps=508 q=-0.0 size=N/A time=00:02:33.19 bitrate=N/A speed=21.2x    frame= 3909 fps=505 q=-0.0 size=N/A time=00:02:43.03 bitrate=N/A speed=21.1x    frame= 4150 fps=502 q=-0.0 size=N/A time=00:02:53.08 bitrate=N/A speed=  21x    frame= 4331 fps=493 q=-0.0 size=N/A time=00:03:00.63 bitrate=N/A speed=20.6x    frame= 4588 fps=494 q=-0.0 size=N/A time=00:03:11.35 bitrate=N/A speed=20.6x    frame= 4780 fps=488 q=-0.0 size=N/A time=00:03:19.36 bitrate=N/A speed=20.3x    frame= 5014 fps=486 q=-0.0 size=N/A time=00:03:29.12 bitrate=N/A speed=20.3x    frame= 5228 fps=482 q=-0.0 size=N/A time=00:03:38.05 bitrate=N/A speed=20.1x    frame= 5464 fps=481 q=-0.0 size=N/A time=00:03:47.89 bitrate=N/A speed=20.1x    frame= 5706 fps=481 q=-0.0 size=N/A time=00:03:57.98 bitrate=N/A speed=20.1x    frame= 5951 fps=481 q=-0.0 size=N/A time=00:04:08.20 bitrate=N/A speed=  20x    frame= 6229 fps=483 q=-0.0 size=N/A time=00:04:19.80 bitrate=N/A speed=20.1x    frame= 6508 fps=485 q=-0.0 size=N/A time=00:04:31.43 bitrate=N/A speed=20.2x    frame= 6792 fps=487 q=-0.0 size=N/A time=00:04:43.28 bitrate=N/A speed=20.3x    frame= 7060 fps=489 q=-0.0 size=N/A time=00:04:54.46 bitrate=N/A speed=20.4x    frame= 7305 fps=488 q=-0.0 size=N/A time=00:05:04.67 bitrate=N/A speed=20.4x    frame= 7579 fps=490 q=-0.0 size=N/A time=00:05:16.10 bitrate=N/A speed=20.4x    frame= 7854 fps=491 q=-0.0 size=N/A time=00:05:27.57 bitrate=N/A speed=20.5x    frame= 8093 fps=490 q=-0.0 size=N/A time=00:05:37.54 bitrate=N/A speed=20.5x    frame= 8351 fps=490 q=-0.0 size=N/A time=00:05:48.30 bitrate=N/A speed=20.5x    frame= 8604 fps=491 q=-0.0 size=N/A time=00:05:58.85 bitrate=N/A speed=20.5x    frame= 8873 fps=492 q=-0.0 size=N/A time=00:06:10.07 bitrate=N/A speed=20.5x    frame= 9155 fps=493 q=-0.0 size=N/A time=00:06:21.83 bitrate=N/A speed=20.6x    frame= 9421 fps=494 q=-0.0 size=N/A time=00:06:32.93 bitrate=N/A speed=20.6x    frame= 9701 fps=495 q=-0.0 size=N/A time=00:06:44.61 bitrate=N/A speed=20.6x    frame= 9959 fps=495 q=-0.0 size=N/A time=00:06:55.37 bitrate=N/A speed=20.6x    frame=10229 fps=496 q=-0.0 size=N/A time=00:07:06.63 bitrate=N/A speed=20.7x    frame=10500 fps=496 q=-0.0 size=N/A time=00:07:17.93 bitrate=N/A speed=20.7x    frame=10771 fps=497 q=-0.0 size=N/A time=00:07:29.24 bitrate=N/A speed=20.7x    frame=11043 fps=498 q=-0.0 size=N/A time=00:07:40.58 bitrate=N/A speed=20.8x    frame=11317 fps=499 q=-0.0 size=N/A time=00:07:52.01 bitrate=N/A speed=20.8x    frame=11595 fps=500 q=-0.0 size=N/A time=00:08:03.60 bitrate=N/A speed=20.8x    frame=11886 fps=501 q=-0.0 size=N/A time=00:08:15.74 bitrate=N/A speed=20.9x    frame=12128 fps=500 q=-0.0 size=N/A time=00:08:25.83 bitrate=N/A speed=20.9x    frame=12408 fps=501 q=-0.0 size=N/A time=00:08:37.51 bitrate=N/A speed=20.9x    frame=12681 fps=502 q=-0.0 size=N/A time=00:08:48.90 bitrate=N/A speed=20.9x    frame=12943 fps=502 q=-0.0 size=N/A time=00:08:59.83 bitrate=N/A speed=20.9x    frame=13190 fps=502 q=-0.0 size=N/A time=00:09:10.13 bitrate=N/A speed=20.9x    frame=13444 fps=501 q=-0.0 size=N/A time=00:09:20.72 bitrate=N/A speed=20.9x    frame=13688 fps=501 q=-0.0 size=N/A time=00:09:30.90 bitrate=N/A speed=20.9x    frame=13941 fps=500 q=-0.0 size=N/A time=00:09:41.45 bitrate=N/A speed=20.9x    frame=14151 fps=499 q=-0.0 size=N/A time=00:09:50.21 bitrate=N/A speed=20.8x    frame=14416 fps=499 q=-0.0 size=N/A time=00:10:01.26 bitrate=N/A speed=20.8x    frame=14692 fps=499 q=-0.0 size=N/A time=00:10:12.77 bitrate=N/A speed=20.8x    frame=14953 fps=500 q=-0.0 size=N/A time=00:10:23.66 bitrate=N/A speed=20.8x    frame=15222 fps=500 q=-0.0 size=N/A time=00:10:34.88 bitrate=N/A speed=20.9x    frame=15474 fps=500 q=-0.0 size=N/A time=00:10:45.39 bitrate=N/A speed=20.8x    frame=15716 fps=499 q=-0.0 size=N/A time=00:10:55.48 bitrate=N/A speed=20.8x    frame=16001 fps=500 q=-0.0 size=N/A time=00:11:07.41 bitrate=N/A speed=20.9x    frame=16265 fps=500 q=-0.0 size=N/A time=00:11:18.38 bitrate=N/A speed=20.9x    frame=16505 fps=500 q=-0.0 size=N/A time=00:11:28.39 bitrate=N/A speed=20.8x    frame=16769 fps=500 q=-0.0 size=N/A time=00:11:39.40 bitrate=N/A speed=20.9x    frame=17036 fps=500 q=-0.0 size=N/A time=00:11:50.54 bitrate=N/A speed=20.9x    frame=17295 fps=500 q=-0.0 size=N/A time=00:12:01.34 bitrate=N/A speed=20.9x    frame=17563 fps=501 q=-0.0 size=N/A time=00:12:12.52 bitrate=N/A speed=20.9x    frame=17850 fps=501 q=-0.0 size=N/A time=00:12:24.49 bitrate=N/A speed=20.9x    frame=18130 fps=502 q=-0.0 size=N/A time=00:12:36.17 bitrate=N/A speed=20.9x    frame=18390 fps=502 q=-0.0 size=N/A time=00:12:47.01 bitrate=N/A speed=20.9x    frame=18641 fps=502 q=-0.0 size=N/A time=00:12:57.48 bitrate=N/A speed=20.9x    frame=18901 fps=502 q=-0.0 size=N/A time=00:13:08.32 bitrate=N/A speed=20.9x    frame=19164 fps=502 q=-0.0 size=N/A time=00:13:19.29 bitrate=N/A speed=20.9x    frame=19434 fps=502 q=-0.0 size=N/A time=00:13:30.55 bitrate=N/A speed=20.9x    frame=19702 fps=503 q=-0.0 size=N/A time=00:13:41.73 bitrate=N/A speed=  21x    frame=19983 fps=503 q=-0.0 size=N/A time=00:13:53.45 bitrate=N/A speed=  21x    frame=20242 fps=503 q=-0.0 size=N/A time=00:14:04.26 bitrate=N/A speed=  21x    frame=20527 fps=504 q=-0.0 size=N/A time=00:14:16.14 bitrate=N/A speed=  21x    frame=20798 fps=504 q=-0.0 size=N/A time=00:14:27.44 bitrate=N/A speed=  21x    frame=21075 fps=504 q=-0.0 size=N/A time=00:14:39.00 bitrate=N/A speed=  21x    frame=21343 fps=504 q=-0.0 size=N/A time=00:14:50.18 bitrate=N/A speed=  21x    frame=21610 fps=505 q=-0.0 size=N/A time=00:15:01.31 bitrate=N/A speed=21.1x    frame=21883 fps=505 q=-0.0 size=N/A time=00:15:12.70 bitrate=N/A speed=21.1x    frame=22154 fps=505 q=-0.0 size=N/A time=00:15:24.00 bitrate=N/A speed=21.1x    frame=22419 fps=505 q=-0.0 size=N/A time=00:15:35.05 bitrate=N/A speed=21.1x    frame=22691 fps=506 q=-0.0 size=N/A time=00:15:46.40 bitrate=N/A speed=21.1x    frame=22973 fps=506 q=-0.0 size=N/A time=00:15:58.16 bitrate=N/A speed=21.1x    frame=23246 fps=506 q=-0.0 size=N/A time=00:16:09.55 bitrate=N/A speed=21.1x    frame=23517 fps=507 q=-0.0 size=N/A time=00:16:20.85 bitrate=N/A speed=21.1x    frame=23794 fps=507 q=-0.0 size=N/A time=00:16:32.40 bitrate=N/A speed=21.1x    frame=24071 fps=507 q=-0.0 size=N/A time=00:16:43.96 bitrate=N/A speed=21.2x    frame=24342 fps=507 q=-0.0 size=N/A time=00:16:55.26 bitrate=N/A speed=21.2x    frame=24596 fps=507 q=-0.0 size=N/A time=00:17:05.85 bitrate=N/A speed=21.2x    frame=24839 fps=507 q=-0.0 size=N/A time=00:17:15.99 bitrate=N/A speed=21.1x    frame=25101 fps=507 q=-0.0 size=N/A time=00:17:26.92 bitrate=N/A speed=21.1x    frame=25356 fps=507 q=-0.0 size=N/A time=00:17:37.55 bitrate=N/A speed=21.1x    frame=25622 fps=507 q=-0.0 size=N/A time=00:17:48.65 bitrate=N/A speed=21.1x    frame=25890 fps=507 q=-0.0 size=N/A time=00:17:59.82 bitrate=N/A speed=21.1x    frame=26130 fps=507 q=-0.0 size=N/A time=00:18:09.83 bitrate=N/A speed=21.1x    frame=26358 fps=506 q=-0.0 size=N/A time=00:18:19.34 bitrate=N/A speed=21.1x    frame=26600 fps=506 q=-0.0 size=N/A time=00:18:29.44 bitrate=N/A speed=21.1x    frame=26853 fps=505 q=-0.0 size=N/A time=00:18:39.99 bitrate=N/A speed=21.1x    frame=27112 fps=505 q=-0.0 size=N/A time=00:18:50.79 bitrate=N/A speed=21.1x    frame=27354 fps=505 q=-0.0 size=N/A time=00:19:00.88 bitrate=N/A speed=21.1x    frame=27617 fps=505 q=-0.0 size=N/A time=00:19:11.85 bitrate=N/A speed=21.1x    frame=27879 fps=505 q=-0.0 size=N/A time=00:19:22.78 bitrate=N/A speed=21.1x    frame=28163 fps=506 q=-0.0 size=N/A time=00:19:34.63 bitrate=N/A speed=21.1x    frame=28456 fps=506 q=-0.0 size=N/A time=00:19:46.85 bitrate=N/A speed=21.1x    frame=28722 fps=506 q=-0.0 size=N/A time=00:19:57.94 bitrate=N/A speed=21.1x    frame=28993 fps=506 q=-0.0 size=N/A time=00:20:09.24 bitrate=N/A speed=21.1x    frame=29252 fps=506 q=-0.0 size=N/A time=00:20:20.05 bitrate=N/A speed=21.1x    frame=29541 fps=507 q=-0.0 size=N/A time=00:20:32.10 bitrate=N/A speed=21.1x    frame=29810 fps=507 q=-0.0 size=N/A time=00:20:43.32 bitrate=N/A speed=21.1x    frame=30083 fps=507 q=-0.0 size=N/A time=00:20:54.71 bitrate=N/A speed=21.2x    frame=30356 fps=507 q=-0.0 size=N/A time=00:21:06.09 bitrate=N/A speed=21.2x    frame=30593 fps=507 q=-0.0 size=N/A time=00:21:15.98 bitrate=N/A speed=21.1x    frame=30821 fps=506 q=-0.0 size=N/A time=00:21:25.49 bitrate=N/A speed=21.1x    frame=31082 fps=506 q=-0.0 size=N/A time=00:21:36.37 bitrate=N/A speed=21.1x    frame=31358 fps=507 q=-0.0 size=N/A time=00:21:47.88 bitrate=N/A speed=21.1x    frame=31605 fps=506 q=-0.0 size=N/A time=00:21:58.19 bitrate=N/A speed=21.1x    frame=31874 fps=506 q=-0.0 size=N/A time=00:22:09.41 bitrate=N/A speed=21.1x    frame=32103 fps=506 q=-0.0 size=N/A time=00:22:18.96 bitrate=N/A speed=21.1x    frame=32344 fps=506 q=-0.0 size=N/A time=00:22:29.01 bitrate=N/A speed=21.1x    frame=32584 fps=505 q=-0.0 size=N/A time=00:22:39.02 bitrate=N/A speed=21.1x    frame=32784 fps=504 q=-0.0 size=N/A time=00:22:47.36 bitrate=N/A speed=  21x    frame=33002 fps=504 q=-0.0 size=N/A time=00:22:56.45 bitrate=N/A speed=  21x    frame=33235 fps=503 q=-0.0 size=N/A time=00:23:06.17 bitrate=N/A speed=  21x    frame=33501 fps=503 q=-0.0 size=N/A time=00:23:17.27 bitrate=N/A speed=  21x    frame=33737 fps=503 q=-0.0 size=N/A time=00:23:27.11 bitrate=N/A speed=  21x    frame=33978 fps=503 q=-0.0 size=N/A time=00:23:37.16 bitrate=N/A speed=  21x    frame=34240 fps=503 q=-0.0 size=N/A time=00:23:48.09 bitrate=N/A speed=  21x    [Parsed_ssim_10 @ 000001b272719140] SSIM Y:0.995266 (23.248050) U:0.994921 (22.942155) V:0.995000 (23.009882) All:0.995164 (23.155421)
[out#0/null @ 000001b271daffc0] video:14748KiB audio:268436KiB subtitle:0KiB other streams:0KiB global headers:0KiB muxing overhead: unknown
frame=34322 fps=503 q=-0.0 Lsize=N/A time=00:23:51.51 bitrate=N/A speed=  21x    
